# xmcd
#
# Track frame offsets:
#	150
#	14229
#	30962
#	48960
#	68365
#	86557
#	104142
#	117923
#	133111
#	151110
#
# Disc length: 2230 seconds
#
# Revision: 7
# Processed by: cddbd v1.5.2PL0 Copyright (c) Steve Scherf et al.
# Submitted via: EZCDAudioConverter 8.0.2.1
#
DISCID=7b08b40a
DTITLE=Various Artist - Nonstop Chachacha. Yêu Hết Con Tim
DYEAR=1999
DGENRE=Latin
TTITLE0=Diệp Thanh Thanh - Môi ô mai
TTITLE1=Lâm Thúy Vân - Tình đầu dễ quên
TTITLE2=Gia Huy - Một giấc mơ buồn
TTITLE3=Trish Thùy Trang - Someway
TTITLE4=Shayla - Đắm say cùng chacha
TTITLE5=Vũ Tuấn Đức - Cánh chim xa vời
TTITLE6=Thanh Trúc - Tình đầu vấn vương
TTITLE7=Ý Lan - Yêu Hết Con Tim
TTITLE8=Lê Tâm - Chacha buồn
TTITLE9=Loan Châu - Cuối tuần bên anh
EXTD=
EXTT0=
EXTT1=
EXTT2=
EXTT3=
EXTT4=
EXTT5=
EXTT6=
EXTT7=
EXTT8=
EXTT9=
PLAYORDER=
